<?xml version="1.0" standalone="no"?>
<!DOCTYPE svg PUBLIC "-//W3C//DTD SVG 20010904//EN"
 "http://www.w3.org/TR/2001/REC-SVG-20010904/DTD/svg10.dtd">
<svg version="1.0" xmlns="http://www.w3.org/2000/svg"
 width="900.000000pt" height="687.000000pt" viewBox="0 0 900.000000 687.000000"
 preserveAspectRatio="xMidYMid meet">

<g transform="translate(0.000000,687.000000) scale(0.100000,-0.100000)"
fill="#000000" stroke="none">
<path d="M2325 6200 c-1194 -4 -1426 -7 -1455 -19 -86 -35 -150 -93 -192 -174
-17 -33 -22 -65 -26 -152 l-4 -111 512 -389 c281 -215 580 -442 663 -505 84
-64 418 -318 742 -565 325 -247 806 -613 1070 -814 264 -201 567 -432 674
-513 l194 -148 36 27 c20 15 284 216 586 448 303 232 879 673 1280 980 402
308 944 723 1205 923 261 201 535 410 608 466 l134 101 -4 105 c-3 90 -7 113
-31 162 -33 67 -90 121 -166 157 l-56 26 -2175 0 c-1196 0 -2814 -2 -3595 -5z
m2693 -339 c349 -72 586 -277 668 -576 24 -91 30 -303 11 -397 -20 -97 -65
-214 -114 -297 -76 -128 -229 -266 -357 -320 -173 -75 -413 -69 -520 13 l-34
26 -54 -24 c-117 -52 -187 -67 -308 -68 -90 0 -129 5 -182 21 -89 28 -165 97
-210 189 -33 66 -33 67 -32 212 1 130 4 153 28 225 48 143 120 249 229 343 74
64 215 135 310 157 170 39 604 -2 615 -59 2 -9 -33 -197 -78 -417 -59 -294
-78 -405 -70 -413 21 -21 150 -12 204 14 107 51 201 183 248 345 33 114 33
318 1 421 -60 189 -221 318 -458 365 -88 17 -354 18 -450 1 -208 -37 -404
-134 -548 -272 -168 -159 -271 -370 -297 -611 -42 -384 132 -655 476 -741 157
-39 468 -28 634 22 35 11 65 18 67 16 2 -1 21 -51 44 -111 46 -123 49 -114
-51 -145 -167 -50 -493 -75 -675 -51 -284 37 -503 151 -651 336 -182 230 -224
594 -108 944 126 379 421 664 830 800 238 79 590 101 832 52z"/>
<path d="M4527 5120 c-178 -45 -297 -222 -297 -440 0 -168 89 -238 265 -210
75 12 105 24 105 43 0 7 25 143 55 302 29 160 50 293 46 298 -12 12 -133 17
-174 7z"/>
<path d="M8205 5062 c-77 -59 -436 -335 -798 -612 l-658 -504 668 -660 c368
-364 728 -719 801 -791 l132 -129 0 1402 c0 771 -1 1402 -2 1402 -2 0 -66 -49
-143 -108z"/>
<path d="M650 3761 c1 -790 5 -1401 10 -1401 12 0 1591 1571 1588 1580 -2 5
-100 82 -218 172 -464 353 -1233 939 -1336 1017 l-44 33 0 -1401z"/>
<path d="M1672 2602 l-1013 -1007 3 -350 c3 -339 4 -351 25 -395 31 -62 95
-125 162 -158 l56 -27 2310 0 c1271 0 2891 2 3600 5 l1290 5 49 23 c80 37 132
85 168 160 l33 67 1 337 2 337 -807 798 c-443 439 -900 890 -1014 1003 -114
113 -214 205 -221 205 -11 0 -398 -291 -686 -515 -32 -25 -98 -75 -146 -112
-91 -69 -426 -326 -777 -596 -117 -90 -203 -149 -210 -145 -11 6 -128 95 -474
358 -72 55 -332 253 -578 440 -246 187 -516 393 -601 458 -84 64 -155 117
-156 117 -2 -1 -459 -454 -1016 -1008z"/>
</g>
</svg>
