<?xml version="1.0" standalone="no"?>
<!DOCTYPE svg PUBLIC "-//W3C//DTD SVG 20010904//EN"
 "http://www.w3.org/TR/2001/REC-SVG-20010904/DTD/svg10.dtd">
<svg version="1.0" xmlns="http://www.w3.org/2000/svg"
 width="1280.000000pt" height="637.000000pt" viewBox="0 0 1280.000000 637.000000"
 preserveAspectRatio="xMidYMid meet">
<metadata>
Created by potrace 1.15, written by Peter Selinger 2001-2017
</metadata>
<g transform="translate(0.000000,637.000000) scale(0.100000,-0.100000)"
fill="#000000" stroke="none">
<path d="M3140 5929 c-1163 -98 -2139 -897 -2464 -2016 -122 -421 -141 -897
-51 -1337 86 -424 289 -858 559 -1192 381 -472 925 -820 1508 -963 252 -62
365 -75 668 -75 235 0 295 3 415 22 305 48 554 126 830 262 671 328 1181 912
1418 1621 312 931 110 1963 -529 2708 -585 681 -1468 1045 -2354 970z"/>
<path d="M9425 5900 c-655 -81 -1192 -340 -1643 -790 -816 -815 -1017 -2089
-494 -3120 131 -257 283 -468 500 -692 183 -188 307 -294 487 -413 319 -212
670 -349 1046 -409 573 -92 1171 12 1684 292 576 315 1028 853 1234 1471 256
766 217 1500 -115 2171 -76 153 -217 373 -324 505 -85 107 -295 315 -400 399
-374 298 -807 489 -1285 567 -145 23 -562 35 -690 19z"/>
</g>
</svg>
