<?xml version="1.0" standalone="no"?>
<!DOCTYPE svg PUBLIC "-//W3C//DTD SVG 20010904//EN"
 "http://www.w3.org/TR/2001/REC-SVG-20010904/DTD/svg10.dtd">
<svg version="1.0" xmlns="http://www.w3.org/2000/svg"
 width="725.000000pt" height="800.000000pt" viewBox="0 0 725.000000 800.000000"
 preserveAspectRatio="xMidYMid meet">

<g transform="translate(0.000000,800.000000) scale(0.100000,-0.100000)"
fill="#000000" stroke="none">
<path d="M3075 7864 c-22 -2 -92 -9 -155 -15 -741 -69 -1411 -325 -1889 -724
-471 -393 -767 -912 -878 -1542 -27 -151 -28 -172 -28 -478 1 -282 3 -337 23
-465 43 -274 117 -557 212 -816 83 -225 140 -323 408 -708 255 -368 369 -617
387 -841 17 -224 -45 -809 -155 -1460 -36 -213 -114 -627 -126 -668 -5 -16 88
-17 1888 -15 l1893 3 13 85 c64 414 155 723 246 843 l26 34 578 5 c563 5 579
6 647 28 150 48 262 121 344 224 136 171 139 261 24 606 -55 166 -64 202 -59
243 7 65 53 147 136 242 97 111 96 125 -17 248 -29 32 -53 66 -53 76 0 11 29
42 67 72 78 63 101 93 112 141 11 48 -4 87 -66 175 -28 40 -54 90 -58 110 -3
21 -17 74 -31 117 -15 48 -22 90 -19 106 13 60 83 95 229 115 51 7 190 74 260
126 155 114 126 260 -118 603 -39 54 -190 248 -336 430 -146 182 -302 382
-346 444 l-80 113 30 87 c27 79 30 99 30 212 0 135 -17 234 -74 433 -140 488
-458 938 -886 1254 -391 288 -850 463 -1414 539 -118 15 -657 28 -765 18z
m811 -793 c17 -10 64 -56 105 -102 160 -181 220 -221 328 -220 104 0 165 42
325 225 39 43 83 87 100 97 92 56 236 -28 236 -138 0 -34 -33 -106 -84 -187
-21 -32 -54 -91 -73 -131 -61 -130 -44 -246 49 -331 37 -33 79 -55 290 -151
32 -15 72 -42 90 -60 29 -30 33 -41 33 -86 0 -64 -28 -123 -69 -148 -43 -27
-120 -24 -246 7 -139 35 -258 38 -315 6 -116 -63 -147 -130 -169 -363 -20
-211 -50 -259 -166 -259 -124 0 -154 45 -175 258 -9 81 -22 170 -30 197 -20
70 -65 126 -127 161 -48 26 -62 29 -138 28 -55 -1 -122 -11 -190 -28 -176 -44
-251 -33 -290 43 -59 117 -27 187 115 251 254 115 295 143 336 228 29 60 30
147 1 217 -11 28 -48 96 -81 152 -61 101 -91 168 -91 205 0 40 34 91 79 119
53 34 111 38 157 10z m-1195 -1171 c73 -20 106 -78 139 -241 42 -211 80 -281
174 -325 104 -48 194 -27 362 86 113 77 176 103 231 97 87 -9 170 -110 158
-190 -7 -48 -45 -124 -101 -203 -125 -176 -140 -308 -46 -416 43 -48 124 -82
271 -112 185 -38 241 -72 261 -162 20 -86 -15 -164 -90 -201 -25 -13 -92 -32
-150 -43 -58 -12 -133 -30 -166 -41 -117 -38 -188 -128 -187 -240 1 -71 25
-126 121 -272 80 -123 101 -185 82 -242 -16 -49 -57 -95 -105 -116 -78 -36
-120 -23 -285 86 -120 80 -181 105 -255 105 -66 0 -108 -16 -158 -59 -51 -46
-82 -117 -112 -266 -39 -192 -68 -242 -158 -266 -87 -23 -167 12 -208 93 -11
21 -30 92 -44 156 -41 204 -77 271 -167 316 -39 19 -67 26 -112 26 -75 0 -121
-21 -267 -117 -162 -107 -232 -117 -311 -45 -97 88 -90 166 32 347 115 170
135 260 84 363 -45 90 -110 126 -302 166 -137 29 -185 46 -221 79 -65 60 -69
180 -8 245 36 39 87 59 223 88 199 41 264 77 309 167 50 101 30 192 -77 351
-130 193 -139 264 -46 353 57 54 117 66 186 37 20 -8 86 -47 146 -86 59 -39
130 -79 157 -89 71 -27 144 -25 206 6 88 44 126 113 163 297 29 145 46 190 84
227 49 48 113 62 187 41z"/>
<path d="M4235 6478 c-122 -44 -191 -167 -165 -294 52 -250 415 -261 486 -15
37 126 -33 264 -155 307 -43 16 -125 16 -166 2z"/>
<path d="M2557 4700 c-92 -23 -179 -96 -219 -185 -34 -76 -32 -182 5 -257 114
-233 439 -242 562 -16 23 43 30 68 33 136 4 77 2 87 -27 147 -54 109 -143 169
-266 180 -27 2 -67 0 -88 -5z"/>
</g>
</svg>
